<mxfile host="Electron" modified="2024-08-22T09:19:16.315Z" agent="Mozilla/5.0 (X11; Linux x86_64) AppleWebKit/537.36 (KHTML, like Gecko) draw.io/22.1.18 Chrome/120.0.6099.199 Electron/28.1.2 Safari/537.36" etag="C_IYXW8KH6l_WJWd3yd-" version="22.1.18" type="device">
  <diagram name="Page-1" id="tVLz-H8TcDohW4CUsqgu">
    <mxGraphModel dx="1368" dy="963" grid="1" gridSize="10" guides="1" tooltips="1" connect="1" arrows="1" fold="1" page="1" pageScale="1" pageWidth="850" pageHeight="1100" math="0" shadow="0">
      <root>
        <mxCell id="0" />
        <mxCell id="1" parent="0" />
        <mxCell id="M-7buxWzd58EejQ7mZZN-34" style="edgeStyle=none;html=1;entryX=0;entryY=0;entryDx=0;entryDy=15;entryPerimeter=0;" edge="1" parent="1" source="M-7buxWzd58EejQ7mZZN-36" target="M-7buxWzd58EejQ7mZZN-38">
          <mxGeometry relative="1" as="geometry">
            <Array as="points">
              <mxPoint x="640" y="160" />
              <mxPoint x="640" y="130" />
            </Array>
          </mxGeometry>
        </mxCell>
        <mxCell id="M-7buxWzd58EejQ7mZZN-35" style="edgeStyle=none;html=1;entryX=0;entryY=0;entryDx=0;entryDy=15;entryPerimeter=0;" edge="1" parent="1" source="M-7buxWzd58EejQ7mZZN-36" target="M-7buxWzd58EejQ7mZZN-40">
          <mxGeometry relative="1" as="geometry">
            <Array as="points">
              <mxPoint x="640" y="160" />
              <mxPoint x="640" y="190" />
            </Array>
          </mxGeometry>
        </mxCell>
        <mxCell id="M-7buxWzd58EejQ7mZZN-36" value="boot&lt;br&gt;generator" style="shape=step;perimeter=stepPerimeter;whiteSpace=wrap;html=1;fixedSize=1;fillColor=#fff2cc;strokeColor=#d6b656;" vertex="1" parent="1">
          <mxGeometry x="530" y="140" width="100" height="40" as="geometry" />
        </mxCell>
        <mxCell id="M-7buxWzd58EejQ7mZZN-38" value="output_1" style="shape=cube;whiteSpace=wrap;html=1;boundedLbl=1;backgroundOutline=1;darkOpacity=0.05;darkOpacity2=0.1;" vertex="1" parent="1">
          <mxGeometry x="660" y="115" width="100" height="50" as="geometry" />
        </mxCell>
        <mxCell id="M-7buxWzd58EejQ7mZZN-40" value="fip.s32" style="shape=cube;whiteSpace=wrap;html=1;boundedLbl=1;backgroundOutline=1;darkOpacity=0.05;darkOpacity2=0.1;" vertex="1" parent="1">
          <mxGeometry x="660" y="175" width="100" height="50" as="geometry" />
        </mxCell>
        <mxCell id="M-7buxWzd58EejQ7mZZN-41" style="edgeStyle=none;html=1;entryX=0;entryY=0.5;entryDx=0;entryDy=0;" edge="1" parent="1" source="M-7buxWzd58EejQ7mZZN-42" target="M-7buxWzd58EejQ7mZZN-36">
          <mxGeometry relative="1" as="geometry" />
        </mxCell>
        <mxCell id="M-7buxWzd58EejQ7mZZN-42" value="boot.yaml" style="shape=note;whiteSpace=wrap;html=1;backgroundOutline=1;darkOpacity=0.05;align=left;" vertex="1" parent="1">
          <mxGeometry x="421" y="139" width="100" height="40" as="geometry" />
        </mxCell>
      </root>
    </mxGraphModel>
  </diagram>
</mxfile>
